<svg width="16" height="20" viewBox="0 0 16 20" fill="none" xmlns="http://www.w3.org/2000/svg">
<path d="M14.5625 -0.00012207H3.39063C1.96902 -0.00012207 0.8125 1.15642 0.8125 2.57803V17.1876C0.8125 18.7384 2.07418 20.0001 3.625 20.0001H14.5625C14.9077 20.0001 15.1875 19.7203 15.1875 19.3751C15.1875 19.03 14.9077 18.7501 14.5625 18.7501H3.625C2.76344 18.7501 2.0625 18.0492 2.0625 17.1876C2.0625 16.326 2.76344 15.6251 3.625 15.6251H14.5625C14.9077 15.6251 15.1875 15.3452 15.1875 15.0001V0.624886C15.1875 0.279725 14.9077 -0.00012207 14.5625 -0.00012207ZM2.0625 14.5091V2.57803C2.0625 1.84451 2.65711 1.24989 3.39063 1.24989H3.42969C3.53754 1.24989 3.625 1.33736 3.625 1.44521V14.1861C3.625 14.2883 3.54637 14.3743 3.44445 14.3808C3.05051 14.4059 2.6784 14.5126 2.34477 14.6839C2.21574 14.7502 2.0625 14.6541 2.0625 14.5091Z" fill="#018E01"/>
<path d="M14.5625 16.5626H3.625C3.2798 16.5626 3 16.8425 3 17.1876C3 17.5328 3.2798 17.8126 3.625 17.8126H14.5625C14.9077 17.8126 15.1875 17.5328 15.1875 17.1876C15.1875 16.8425 14.9077 16.5626 14.5625 16.5626Z" fill="#018E01"/>
</svg>
