<svg width="20" height="13" viewBox="0 0 20 13" fill="none" xmlns="http://www.w3.org/2000/svg">
<path d="M8.83294 11.7267C8.83294 11.6474 8.89615 11.5837 8.97518 11.5837H11.0248C11.104 11.5837 11.1676 11.6472 11.1676 11.7267C11.1676 11.8058 11.104 11.8698 11.0248 11.8698H8.97518C8.89644 11.8696 8.83294 11.8057 8.83294 11.7267ZM17.075 10.8175H2.86675V1.30019H17.075V10.8175ZM19.9002 11.7967C19.9002 11.585 19.729 11.4134 19.5182 11.4134V11.3862H17.4914C17.5947 11.3399 17.6672 11.2362 17.6672 11.1148V1.00216C17.6672 0.837903 17.5349 0.704834 17.3709 0.704834H2.57055C2.40757 0.704834 2.27464 0.837903 2.27464 1.00216V11.1147C2.27464 11.2353 2.34703 11.3397 2.45033 11.386H0.481823V11.4125C0.271003 11.4124 0.0999756 11.5843 0.0999756 11.7962C0.0999756 12.0082 0.271003 12.1801 0.481823 12.1801H19.5182C19.7293 12.1798 19.9002 12.0083 19.9002 11.7967Z" fill="#018E01"/>
</svg>
