<svg width="24" height="19" viewBox="0 0 24 19" fill="none" xmlns="http://www.w3.org/2000/svg">
<path d="M1.4375 14.8749H2.65625H21.425H22.5625C23.05 14.8749 23.375 14.5499 23.375 14.0624C23.375 13.5749 23.05 13.2499 22.5625 13.2499H21.75C21.5875 8.61867 18.4187 4.7999 14.1937 3.74364C14.3562 3.41864 14.4375 3.09364 14.4375 2.68739C14.4375 1.30613 13.3812 0.249878 12 0.249878C10.6187 0.249878 9.5625 1.30613 9.5625 2.68739C9.5625 3.09364 9.64375 3.41864 9.80625 3.74364C5.58125 4.7999 2.4125 8.61867 2.25 13.2499H1.4375C0.95 13.2499 0.625 13.5749 0.625 14.0624C0.625 14.5499 0.95 14.8749 1.4375 14.8749Z" fill="#018E01"/>
<path d="M3.46875 16.5L4.11875 17.7188C4.2 17.9625 4.525 18.125 4.85 18.125H19.2312C19.5562 18.125 19.8 17.9625 19.9625 17.7188L20.6125 16.5H3.46875Z" fill="#018E01"/>
</svg>
