<svg width="22" height="24" viewBox="0 0 22 24" fill="none" xmlns="http://www.w3.org/2000/svg">
<path d="M12.9109 7.65551H10.5522C9.76957 7.65551 9.68857 7.08288 9.68407 6.88188V5.95675C9.68407 5.15012 9.13132 4.495 8.44582 4.495H6.35969C5.67419 4.495 5.12219 5.15012 5.12219 5.95675V6.92501C5.10494 7.17813 4.98194 7.65551 4.29869 7.65551H1.89419C1.22107 7.65551 0.681443 8.19514 0.681443 8.86827V10.1995C0.681443 10.1995 0.666443 11.3804 1.17494 13.1729C1.17532 13.1737 1.17532 13.1744 1.17607 13.1748L3.23782 20.4408C3.23894 20.4472 3.56182 21.9746 3.56182 22.3826V23.3797C3.56182 23.7127 3.82882 23.9853 4.16932 23.9853H10.6362C10.9756 23.9853 11.2426 23.7123 11.2426 23.3797V22.9031C11.2564 22.5273 11.3843 21.6753 11.4874 21.0397L11.9648 19.0398L13.6133 13.2325C13.6133 13.2322 13.6133 13.2322 13.6133 13.2322C13.9654 11.9909 14.1233 10.0791 14.1233 10.0791V8.86864C14.1237 8.19514 13.5848 7.65551 12.9109 7.65551ZM11.5381 12.853C11.4844 13.1358 11.4263 13.4399 11.3667 13.7523L10.4738 17.9302L9.53407 21.6836C9.38557 22.2795 8.97832 22.395 8.75107 22.413H6.07732C5.87632 22.3953 5.45819 22.2746 5.28832 21.5864L4.43444 18.1289L3.34844 13.1275L3.27719 12.6929L3.27644 12.6918L3.22769 12.3952C3.20107 12.0337 3.29519 11.4678 4.17569 11.4678H4.66094C4.79857 11.4712 5.18969 11.5312 5.30632 12.0922L6.36682 17.2034C6.36757 17.2042 6.52432 17.4918 6.55807 17.2042L7.16782 11.9504C7.16895 11.9407 7.23982 11.4678 7.80195 11.4678H10.5694C10.8687 11.4738 11.7889 11.5904 11.5381 12.853Z" fill="#018E01"/>
<path d="M20.1522 12.0314H19.8259C19.3137 12.0408 19.2649 11.5391 19.2612 11.3714V5.27129C19.2638 5.05079 19.2927 4.11329 19.6414 3.09066C19.6414 3.08841 19.6414 3.08728 19.6426 3.08541L20.5069 0.549649C20.5069 0.549274 20.5069 0.549274 20.5069 0.548149C20.6963 -0.00760331 20.0772 0.0148968 20.0772 0.0148968H17.0757C16.4997 0.0148968 16.6261 0.523024 16.6677 0.651649L16.6692 0.656149C16.6737 0.670024 16.6771 0.680524 16.6771 0.680524L17.5332 3.22678C17.5332 3.22678 17.8744 4.26179 17.8744 5.17229V11.3801C17.8744 11.9186 17.5737 12.0179 17.4076 12.0318H17.0172C16.3726 12.0318 15.8513 12.7762 15.8513 13.6946V22.3226C15.8513 23.2417 16.3729 23.9861 17.0172 23.9861H20.1522C20.7946 23.9861 21.3184 23.2421 21.3184 22.3226V13.6942C21.3188 12.7758 20.7946 12.0314 20.1522 12.0314Z" fill="#018E01"/>
</svg>
