<svg width="24" height="24" viewBox="0 0 24 24" fill="none" xmlns="http://www.w3.org/2000/svg">
<path d="M12 1.50098C6.2025 1.50098 1.5 6.20346 1.5 12.0009C1.5 17.7984 6.2025 22.5009 12 22.5009C17.7975 22.5009 22.5 17.7984 22.5 12.0009C22.5 6.20346 17.7975 1.50098 12 1.50098ZM12 21.0009C7.035 21.0009 3 16.9659 3 12.0009C3 7.03596 7.035 3.00097 12 3.00097C16.965 3.00097 21 7.03596 21 12.0009C21 16.9659 16.965 21.0009 12 21.0009ZM16.5 11.2509V12.7509H12.75V16.5009H11.25V12.7509H7.5V11.2509H11.25V7.50096H12.75V11.2509H16.5Z" fill="#018E01"/>
</svg>
