<svg width="20" height="20" viewBox="0 0 20 20" fill="none" xmlns="http://www.w3.org/2000/svg">
<path d="M2.89933 9.64514L0.966416 11.578L1.7948 12.4064L0.690186 13.511L6.48896 19.3097L7.59357 18.2051L8.42195 19.0335L10.3549 17.1006L2.89933 9.64514Z" fill="#018E01"/>
<path d="M13.5109 0.690308L12.4063 1.79491L11.5779 0.966536L9.64502 2.89943L17.1005 10.3549L19.0335 8.422L18.2051 7.59363L19.3097 6.48903L13.5109 0.690308Z" fill="#018E01"/>
<path d="M15.8562 1.38257L17.2367 0.00211663L19.9975 2.76299L18.6171 4.14344L15.8562 1.38257Z" fill="#018E01"/>
<path d="M-0.00183105 17.2371L1.37862 15.8566L4.1395 18.6175L2.75905 19.9979L-0.00183105 17.2371Z" fill="#018E01"/>
<path d="M6.07336 11.1637L11.1616 6.07552L13.9224 8.83638L8.83424 13.9246L6.07336 11.1637Z" fill="#018E01"/>
</svg>
