<svg width="22" height="24" viewBox="0 0 22 24" fill="none" xmlns="http://www.w3.org/2000/svg">
<path d="M12.4573 4.6418C13.7026 4.6418 14.712 3.63235 14.712 2.38712C14.712 1.1419 13.7026 0.132446 12.4573 0.132446C11.2121 0.132446 10.2026 1.1419 10.2026 2.38712C10.2026 3.63235 11.2121 4.6418 12.4573 4.6418Z" fill="#018E01"/>
<path d="M14.6511 10.2734L17.7233 11.6801L21.3237 9.27814L20.6433 7.86134L18.0737 9.31876L13.3308 6.15002H10.6749L10.4312 10.2074L10.2026 13.9805L13.1886 16.3367L15.5854 18.2308L15.3823 23.2632H17.4187L18.4901 16.5094L14.5698 12.843L14.6511 10.2734Z" fill="#018E01"/>
<path d="M10.2027 17.8956L9.10071 23.2632H10.9238L12.9753 18.6827L13.1124 17.1847L10.2027 14.8894V17.8956Z" fill="#018E01"/>
<path d="M9.71008 10.3444L9.92844 6.77454L6.71906 9.44562L5.70852 12.7921H5.12961C4.95187 12.7921 4.79953 12.9241 4.77922 13.1018L4.41359 16.0319V16.037L4.40851 16.0725H2.05226C1.60539 16.0725 1.22961 16.4128 1.1839 16.8546L0.68117 21.6838C0.62531 22.2018 1.03156 22.6487 1.54953 22.6487H2.16398C2.16398 21.5975 3.02726 20.7342 4.08351 20.7342C4.14953 20.7342 4.22062 20.7393 4.28156 20.7444C4.40344 20.7545 4.52023 20.7799 4.63195 20.8155L5.11945 16.1182L5.44445 13.503H7.45031C7.64836 13.503 7.80578 13.3456 7.80578 13.1476C7.80578 12.9952 7.71437 12.8683 7.58234 12.8175L8.46086 10.578L9.71008 10.3444Z" fill="#018E01"/>
<path d="M4.2105 21.4504C4.16987 21.4453 4.12925 21.4453 4.08355 21.4453C3.41323 21.4453 2.86987 21.9887 2.86987 22.659C2.86987 23.3293 3.41323 23.8726 4.08355 23.8726C4.75386 23.8726 5.29722 23.3293 5.29722 22.659C5.29722 22.0293 4.81987 21.5164 4.2105 21.4504Z" fill="#018E01"/>
</svg>
